<?xml version="1.0" standalone="no"?>
<!DOCTYPE svg PUBLIC "-//W3C//DTD SVG 20010904//EN"
 "http://www.w3.org/TR/2001/REC-SVG-20010904/DTD/svg10.dtd">
<svg version="1.0" xmlns="http://www.w3.org/2000/svg"
 width="992.000000pt" height="992.000000pt" viewBox="0 0 992.000000 992.000000"
 preserveAspectRatio="xMidYMid meet">
<metadata>
Created by potrace 1.14, written by Peter Selinger 2001-2017
</metadata>
<g transform="translate(0.000000,992.000000) scale(0.100000,-0.100000)"
fill="#000000" stroke="none">
<path d="M5760 9260 c0 -5 -3 -9 -7 -8 -15 3 -61 -21 -86 -44 -14 -13 -37 -29
-51 -36 -14 -7 -37 -17 -51 -23 -39 -19 -148 -131 -169 -174 -10 -22 -22 -47
-26 -55 -4 -8 -2 -26 5 -40 16 -32 18 -45 16 -156 -1 -107 -19 -144 -89 -182
-53 -30 -82 -83 -82 -150 0 -68 -21 -113 -81 -173 -50 -50 -109 -159 -109
-200 0 -28 -24 -80 -48 -105 -11 -11 -22 -30 -26 -41 -6 -19 -63 -80 -99 -106
-11 -7 -21 -30 -24 -52 -6 -42 -24 -85 -53 -123 -25 -31 -87 -198 -94 -249 -6
-49 -24 -87 -59 -124 -13 -14 -30 -36 -37 -48 -6 -13 -27 -43 -46 -68 -18 -24
-41 -59 -50 -78 -9 -19 -32 -47 -50 -63 -19 -15 -52 -43 -73 -62 -22 -19 -61
-46 -88 -60 -26 -14 -54 -30 -61 -37 -7 -7 -19 -13 -26 -13 -7 0 -23 -12 -37
-26 -13 -15 -46 -45 -74 -66 -46 -37 -141 -119 -205 -178 -15 -14 -31 -40 -35
-58 -4 -18 -23 -53 -43 -77 -21 -24 -46 -59 -57 -77 -11 -18 -36 -42 -56 -52
-25 -13 -43 -34 -58 -67 -14 -31 -37 -59 -66 -80 l-44 -31 -4 -97 c-3 -53 -12
-134 -21 -181 -9 -47 -19 -120 -23 -162 l-6 -77 31 11 c23 9 43 9 84 0 29 -6
118 -13 197 -16 l144 -5 43 31 c80 57 166 44 214 -34 21 -35 21 -55 3 -693
l-8 -280 -32 -55 c-17 -30 -57 -81 -88 -112 -65 -66 -145 -183 -145 -212 0
-11 -18 -56 -39 -100 -29 -60 -41 -100 -46 -151 -4 -39 -18 -97 -32 -130 -14
-33 -28 -77 -33 -97 -14 -69 -113 -195 -173 -219 -17 -7 -46 -23 -63 -34 -44
-30 -103 -30 -145 -2 -38 25 -84 105 -93 163 -18 107 -24 131 -39 159 -33 60
-37 77 -43 173 -6 76 -12 103 -29 127 -11 17 -27 44 -35 60 -8 17 -29 48 -47
71 -37 46 -63 102 -63 136 0 27 -39 108 -75 157 -18 25 -25 47 -25 82 0 36 -3
47 -13 43 -19 -7 -78 36 -98 71 -19 34 -32 222 -17 249 6 10 5 16 -2 16 -5 0
-10 -7 -10 -16 0 -8 -4 -13 -9 -9 -5 3 -13 0 -17 -6 -5 -8 -3 -9 6 -4 8 5 11
4 6 -3 -3 -5 -1 -13 4 -15 6 -3 5 -4 -1 -3 -7 1 -19 13 -28 26 -9 13 -11 21
-4 17 6 -4 15 -2 19 5 4 7 4 10 -1 6 -4 -4 -16 -3 -26 2 -12 7 -20 6 -25 -2
-4 -7 -3 -8 4 -4 7 4 12 2 12 -3 0 -13 -17 -14 -25 -2 -3 5 2 17 11 25 8 9 11
17 5 17 -6 1 -17 2 -23 3 -7 1 -12 11 -10 24 2 12 -1 22 -7 22 -6 0 -7 -7 -4
-17 4 -10 2 -14 -4 -10 -5 3 -10 0 -10 -8 0 -8 5 -11 10 -8 6 4 7 1 2 -7 -5
-8 -4 -11 3 -6 18 11 22 -10 7 -30 -15 -19 -15 -19 -8 0 5 14 3 17 -7 11 -8
-5 -11 -4 -6 3 3 6 2 13 -4 17 -14 9 -13 48 2 63 11 11 1 17 -24 13 -4 0 -10
8 -13 19 -4 11 -12 20 -20 20 -7 0 -16 6 -18 13 -4 9 -6 9 -6 -1 -1 -7 5 -15
13 -18 8 -3 12 -13 9 -22 -4 -13 -3 -14 5 -4 7 11 10 11 15 -3 4 -9 3 -13 -3
-10 -6 3 -10 1 -10 -4 0 -6 -4 -11 -10 -11 -5 0 -9 3 -9 8 4 21 -2 43 -10 38
-7 -5 -8 12 -2 47 0 5 5 6 9 3 5 -3 9 1 9 9 0 8 -4 12 -8 9 -4 -2 -10 0 -14 6
-3 5 -12 10 -18 10 -7 0 -6 -4 3 -11 10 -7 11 -9 2 -7 -20 5 -14 23 6 22 10 0
18 7 18 17 0 14 -3 15 -13 7 -7 -6 -13 -7 -13 -4 0 4 -7 0 -16 -8 -24 -24 -38
-19 -15 6 25 26 11 50 -26 44 -17 -4 -31 3 -50 24 -14 16 -31 27 -37 23 -6 -3
-7 -2 -3 2 9 11 39 16 33 7 -2 -4 5 -16 15 -26 16 -17 19 -17 19 -3 0 9 -4 19
-10 22 -6 3 -10 13 -10 21 0 9 5 12 12 8 7 -4 8 -3 4 4 -5 9 -13 9 -28 1 -11
-6 -18 -7 -15 -2 5 8 -30 46 -43 48 -3 0 -4 8 -4 17 1 9 -5 19 -12 22 -8 3
-14 0 -14 -7 0 -7 -5 -4 -11 6 -8 14 -14 15 -31 6 -16 -8 -19 -8 -13 1 5 8 3
11 -6 8 -8 -3 -13 -11 -11 -17 1 -7 -2 -10 -8 -6 -6 4 -5 13 2 25 7 11 17 16
23 11 12 -9 45 -11 45 -2 0 4 -10 12 -22 20 -21 13 -22 13 -9 -2 22 -27 0 -19
-32 10 -19 19 -26 22 -21 10 3 -10 3 -17 -2 -16 -16 4 -44 -13 -38 -22 3 -5 0
-9 -5 -9 -14 0 -14 17 0 26 8 5 6 10 -5 16 -9 5 -13 14 -9 21 5 9 3 9 -8 1
-21 -17 -74 17 -56 35 9 11 7 11 -13 0 -14 -7 -28 -12 -32 -11 -8 2 -5 -19 7
-38 7 -12 6 -13 -6 -3 -8 6 -18 12 -24 13 -19 4 -45 27 -38 33 3 4 1 7 -6 7
-7 0 -9 5 -5 12 4 7 3 8 -4 4 -8 -5 -9 -13 -2 -25 5 -10 6 -22 2 -26 -4 -5 -2
-5 4 -2 6 4 19 -2 28 -12 14 -15 15 -21 4 -27 -7 -4 -10 -4 -6 1 4 4 3 14 -3
22 -10 11 -14 10 -25 -4 -13 -17 -14 -17 -8 0 5 13 2 16 -10 11 -9 -3 -13 -10
-10 -15 3 -5 -2 -6 -10 -3 -9 3 -16 10 -16 15 0 5 -5 9 -12 9 -7 0 -5 -7 5
-18 15 -17 15 -18 -4 -19 -10 -1 -17 2 -14 8 14 22 -12 5 -34 -23 -23 -29 -23
-30 -3 -17 12 8 22 18 22 23 0 4 6 3 13 -3 8 -6 18 -7 22 -3 5 4 5 1 1 -6 -4
-7 -12 -10 -17 -6 -5 3 -21 -1 -34 -10 -25 -16 -42 -7 -30 17 4 6 -3 1 -14
-13 -20 -24 -25 -36 -22 -53 1 -4 -5 -14 -13 -22 -12 -13 -15 -12 -20 2 -4 9
-9 13 -13 10 -3 -4 -12 -2 -19 4 -8 7 -14 6 -20 -2 -4 -7 -3 -9 3 -6 6 4 18
-2 28 -13 15 -16 15 -22 5 -35 -7 -8 -17 -15 -23 -15 -6 0 -3 6 8 13 20 15 12
42 -11 33 -7 -3 -18 2 -22 11 -8 13 -10 10 -10 -12 1 -15 3 -23 7 -19 3 5 13
10 21 12 11 2 11 -1 -3 -11 -19 -16 -67 -11 -67 6 0 6 -2 8 -5 5 -12 -11 7
-37 23 -31 13 4 14 3 3 -5 -7 -5 -18 -16 -23 -23 -8 -11 -9 -11 -5 2 3 9 1 21
-5 27 -14 14 -38 4 -38 -17 -1 -14 -3 -13 -15 3 -17 22 -20 10 -5 -14 9 -13
13 -11 30 10 11 14 20 20 20 13 0 -14 -28 -43 -42 -43 -6 0 -16 7 -23 17 -9
13 -14 13 -20 3 -6 -9 -4 -11 5 -5 10 6 12 4 7 -8 -3 -9 -1 -19 5 -23 7 -5 8
-2 3 7 -5 8 -4 10 0 6 12 -11 15 -37 4 -37 -5 0 -9 5 -9 10 0 6 -7 10 -16 10
-8 0 -13 -4 -9 -9 3 -5 0 -13 -6 -17 -7 -4 -9 -3 -6 2 3 5 -3 10 -13 10 -24 0
-19 -31 6 -31 10 -1 22 3 25 8 4 5 10 4 13 -2 4 -6 2 -12 -3 -12 -6 -1 -15 -3
-21 -4 -5 -1 -15 -3 -21 -4 -5 0 -8 -5 -5 -10 3 -5 -1 -12 -10 -15 -8 -3 -13
-10 -10 -15 8 -12 -4 -41 -16 -41 -6 0 -6 5 1 14 6 8 11 18 9 22 -1 5 3 19 10
31 9 17 9 22 -2 26 -10 4 -12 -1 -9 -16 4 -22 4 -22 -12 -2 -15 19 -16 19 -12
-2 2 -13 6 -26 10 -29 15 -15 6 -26 -10 -13 -16 13 -17 12 -5 -3 11 -14 10
-18 -5 -27 -10 -6 -12 -11 -5 -11 6 0 12 -4 12 -10 0 -5 -8 -7 -17 -4 -15 5
-15 4 -3 -5 11 -7 20 -5 35 7 11 9 17 13 13 8 -4 -5 -2 -16 5 -25 11 -14 10
-14 -5 -2 -14 10 -18 11 -18 1 0 -7 8 -19 18 -26 16 -12 16 -12 -3 -11 -12 1
-19 -3 -17 -12 2 -9 -3 -11 -15 -7 -16 5 -15 4 1 -9 14 -11 16 -15 5 -15 -10
-1 -9 -3 4 -11 9 -6 14 -15 11 -21 -4 -6 -2 -8 4 -4 6 3 13 2 16 -3 4 -5 -2
-12 -11 -14 -17 -4 -17 -5 0 -6 12 -1 16 -5 11 -13 -5 -9 -2 -9 9 1 19 15 23
26 6 15 -8 -4 -8 0 0 15 13 24 23 28 15 6 -5 -11 -2 -14 12 -9 18 6 18 6 1 -7
-20 -16 -31 -59 -15 -59 5 0 8 6 5 14 -8 21 15 37 33 24 12 -8 12 -9 -2 -4
-12 3 -18 0 -18 -9 0 -9 6 -12 18 -8 11 4 10 0 -5 -11 -13 -10 -23 -22 -23
-27 0 -6 7 -3 16 6 13 13 19 13 32 3 13 -11 15 -10 9 5 -4 11 -3 16 4 12 5 -4
7 -15 4 -24 -3 -10 1 -24 10 -31 15 -13 11 -35 -6 -24 -5 3 -6 10 -3 16 4 7 2
8 -4 4 -17 -10 -3 -36 20 -36 14 0 18 -5 14 -16 -3 -9 -6 -18 -6 -20 0 -3 -5
-2 -10 1 -6 4 -7 12 -3 18 4 7 0 6 -10 -2 -18 -14 -23 -26 -8 -16 5 3 12 1 15
-4 4 -5 2 -12 -4 -16 -5 -3 -10 -12 -10 -18 0 -7 11 1 23 17 16 20 26 25 31
18 9 -14 -2 -35 -14 -27 -4 3 -11 -2 -14 -11 -3 -8 -2 -12 4 -9 6 3 10 1 10
-5 0 -6 4 -9 8 -6 4 2 14 0 22 -6 13 -8 12 -9 -2 -5 -17 6 -46 -19 -34 -30 3
-3 6 -1 6 6 0 7 8 11 18 9 9 -1 23 1 30 6 11 7 11 4 0 -13 -7 -12 -14 -17 -16
-11 -2 5 -8 10 -13 10 -6 0 -6 -7 0 -18 8 -14 5 -29 -11 -58 -11 -21 -17 -36
-13 -32 9 9 35 -9 35 -24 0 -5 -6 -6 -12 -2 -7 4 -4 -3 7 -16 l20 -23 -20 6
c-19 7 -19 6 -2 -7 14 -10 15 -15 5 -19 -7 -3 -8 -6 -2 -6 5 -1 19 6 30 15 13
11 14 14 3 11 -9 -3 -16 1 -16 8 0 8 8 13 17 12 25 -2 18 -27 -14 -52 -21 -16
-25 -25 -16 -30 9 -6 11 -4 5 5 -6 10 -4 12 9 7 10 -4 15 -3 11 3 -3 6 -1 10
6 10 6 0 17 7 24 16 10 15 12 15 12 1 0 -9 -6 -18 -14 -21 -7 -3 -13 -13 -13
-21 0 -9 -4 -14 -9 -10 -5 3 -13 0 -17 -6 -4 -8 -3 -9 4 -5 7 4 12 1 12 -6 1
-7 7 -2 14 11 11 19 14 20 19 8 4 -10 14 -14 27 -12 11 2 18 0 15 -6 -4 -5
-11 -6 -17 -3 -7 5 -9 0 -6 -14 3 -12 0 -23 -7 -25 -8 -4 -10 2 -7 18 2 12 -1
26 -6 29 -16 10 -11 -52 5 -65 11 -10 10 -14 -4 -26 -10 -8 -12 -12 -5 -8 7 4
20 1 28 -6 8 -6 17 -9 21 -5 3 3 0 6 -7 6 -9 0 -8 4 4 13 17 13 18 14 2 20
-12 5 -15 3 -10 -6 5 -8 2 -7 -9 2 -23 18 -21 21 8 19 26 -2 41 -23 24 -34 -6
-4 -3 -14 8 -27 16 -19 16 -20 1 -8 -13 10 -18 10 -18 2 0 -7 -5 -9 -12 -5 -9
6 -9 3 0 -9 8 -9 10 -22 6 -29 -4 -7 3 -4 16 7 l23 20 -10 -20 c-6 -11 -8 -26
-5 -34 3 -9 0 -11 -8 -6 -9 5 -11 4 -6 -4 4 -6 11 -9 16 -6 10 6 20 -7 25 -34
2 -11 -3 -22 -11 -25 -8 -3 -14 -10 -14 -16 0 -6 7 -4 16 4 12 12 20 13 35 6
10 -6 19 -8 19 -4 0 3 7 1 15 -6 8 -7 13 -24 11 -41 -2 -17 -1 -27 2 -24 10 9
31 -16 25 -31 -8 -21 -22 -17 -18 6 3 17 1 18 -14 10 -10 -5 -22 -6 -26 -2 -5
4 -5 2 -1 -5 4 -7 14 -9 24 -6 15 6 16 5 2 -12 -8 -10 -10 -16 -5 -13 6 4 17
3 25 -3 10 -6 11 -9 3 -9 -7 0 -13 -5 -13 -11 0 -5 4 -8 9 -5 4 3 19 -3 31
-14 13 -11 28 -20 34 -20 6 -1 0 -7 -14 -15 -33 -19 -17 -19 20 0 27 14 30 14
40 -6 10 -18 10 -19 -7 -10 -12 6 -25 6 -34 0 -12 -7 -12 -9 1 -10 8 -1 18 -1
23 0 4 0 7 -4 7 -9 0 -6 -5 -10 -12 -10 -6 0 -8 -3 -5 -6 4 -4 13 -2 21 5 11
9 15 8 19 -3 4 -9 15 -13 26 -11 11 2 20 1 19 -3 -1 -4 3 -17 10 -29 7 -13 8
-24 2 -28 -6 -4 -5 -15 2 -30 6 -14 16 -21 22 -18 6 4 5 -1 -3 -10 -15 -18 -3
-23 17 -7 7 5 6 3 -1 -5 -8 -10 -20 -13 -31 -9 -14 5 -15 9 -4 15 10 7 11 9 0
9 -7 0 -11 4 -8 8 2 4 1 14 -3 21 -6 9 -11 10 -15 2 -4 -6 -3 -11 3 -11 5 0 8
-9 6 -20 -2 -12 4 -24 16 -31 12 -6 18 -17 15 -24 -3 -8 -1 -17 5 -20 5 -4 7
-11 4 -16 -4 -5 1 -12 9 -15 9 -3 14 -10 11 -14 -9 -15 16 -23 28 -10 9 10 8
12 -6 7 -11 -4 -16 -3 -12 3 3 6 -1 13 -10 16 -13 6 -14 8 -3 15 7 5 8 9 3 9
-6 0 -11 9 -12 20 -1 11 2 20 8 20 5 0 8 -3 8 -7 -3 -20 2 -34 10 -28 6 3 8
-3 6 -14 -2 -11 3 -22 11 -25 9 -3 13 -10 10 -15 -4 -5 -2 -11 3 -13 5 -1 6
-18 4 -35 -3 -19 -10 -30 -16 -26 -6 3 -7 1 -3 -6 4 -6 12 -9 17 -5 6 3 13 -4
16 -15 4 -14 11 -20 22 -17 9 3 23 1 31 -5 12 -8 11 -9 -5 -5 -16 5 -21 1 -22
-14 -1 -13 2 -18 10 -13 8 5 8 2 -1 -9 -16 -20 -6 -47 22 -58 19 -8 19 -9 2
-9 -10 -1 -24 6 -30 15 -11 14 -13 14 -26 -3 -8 -10 -10 -15 -5 -10 4 4 19 0
31 -8 13 -8 31 -12 41 -9 17 5 17 5 0 -6 -9 -6 -27 -9 -40 -6 -12 3 -16 3 -9
0 6 -3 10 -9 7 -14 -2 -4 10 -6 27 -4 35 4 33 -4 -2 -11 -13 -3 -28 -10 -34
-16 -8 -9 -8 -10 2 -5 37 21 85 12 50 -10 -7 -5 -8 -3 -3 5 6 10 3 11 -14 2
-11 -7 -21 -13 -21 -14 0 -6 45 -2 55 5 6 4 11 -6 11 -22 1 -16 -4 -31 -11
-33 -6 -3 -12 1 -12 9 0 7 5 10 10 7 6 -3 7 -1 3 6 -4 6 -12 9 -17 6 -5 -4 -9
-1 -9 5 0 6 -5 8 -11 4 -8 -5 -7 -10 4 -16 9 -5 14 -15 10 -23 -6 -16 20 -17
45 -2 7 5 12 4 12 -2 0 -6 -4 -12 -10 -12 -5 -1 -14 -3 -20 -4 -5 -1 -13 -3
-17 -4 -5 -1 2 -6 15 -11 12 -5 22 -15 22 -22 0 -9 -3 -10 -8 -2 -9 14 -41 10
-56 -7 -8 -9 -8 -10 0 -6 7 4 17 0 24 -8 12 -14 7 -20 -15 -15 -5 1 -5 -4 2
-11 6 -6 9 -17 6 -24 -6 -18 14 -55 30 -54 9 0 9 2 0 6 -18 7 -16 20 2 20 8 0
12 -4 9 -9 -3 -4 0 -9 5 -9 26 -3 30 -4 34 -9 3 -3 -10 -5 -29 -6 -19 0 -40
-6 -45 -11 -8 -8 -4 -11 14 -10 14 1 22 7 19 12 -3 6 1 4 10 -2 8 -7 17 -11
19 -8 4 4 8 -18 9 -58 1 -9 6 -15 11 -11 5 3 8 0 7 -7 -2 -7 2 -13 9 -14 6 0
14 -3 18 -7 4 -3 0 -5 -9 -4 -8 1 -19 5 -22 9 -4 4 -16 7 -27 7 -19 0 -20 1
-2 20 11 12 13 20 6 20 -7 0 -9 5 -5 12 4 7 3 8 -4 4 -7 -4 -10 -2 -9 6 2 7 2
10 0 6 -2 -4 -12 -4 -21 -1 -11 4 -9 -1 6 -15 15 -13 21 -26 16 -34 -14 -22
-13 -37 2 -31 31 12 51 -32 30 -65 -4 -7 -2 -20 6 -29 11 -14 11 -16 -4 -11
-9 4 -24 1 -33 -6 -16 -11 -16 -13 -1 -13 9 0 16 5 16 10 0 6 2 8 5 5 9 -8 -6
-38 -16 -32 -5 3 -6 -2 -3 -10 6 -17 26 -23 22 -7 -3 10 2 11 30 10 16 0 16
-1 -1 -8 -10 -4 -17 -11 -15 -16 2 -4 -7 -9 -19 -10 -13 -1 -26 -5 -30 -10 -5
-4 2 -4 15 -1 13 5 22 3 22 -3 0 -6 -8 -11 -17 -12 -14 0 -13 -2 5 -9 12 -5
30 -7 40 -4 13 5 14 4 3 -4 -11 -8 -11 -10 0 -14 11 -4 12 -8 2 -20 -7 -8 -9
-18 -5 -23 4 -4 -4 -2 -18 4 -21 10 -22 10 -10 -1 16 -14 20 -51 8 -64 -11
-11 -10 -24 2 -24 6 0 9 6 8 12 -4 18 25 16 29 -2 4 -13 3 -13 -7 0 -10 13
-11 13 -7 0 2 -8 11 -14 20 -14 9 1 13 -4 10 -12 -4 -10 -10 -11 -23 -4 -25
14 -40 12 -16 -1 15 -9 16 -13 5 -20 -10 -6 -11 -9 -1 -9 6 0 12 -7 12 -16 0
-8 4 -12 10 -9 6 4 7 -1 3 -11 -5 -13 -3 -15 7 -9 9 6 11 4 5 -5 -6 -10 -3
-12 11 -7 16 6 17 5 4 -5 -16 -14 -19 -26 -9 -43 3 -5 5 -26 4 -45 -1 -19 4
-39 9 -43 7 -6 4 -7 -6 -3 -10 3 -18 1 -18 -5 0 -6 -7 -8 -16 -5 -13 5 -14 4
-6 -7 7 -8 9 -17 5 -21 -4 -4 -1 -11 6 -16 9 -5 11 -14 6 -26 -12 -27 -14 -54
-4 -48 5 3 9 1 9 -5 0 -5 3 -17 7 -27 4 -12 3 -15 -5 -10 -8 5 -10 2 -5 -9 5
-13 7 -14 14 -3 6 9 9 7 9 -9 0 -17 -4 -21 -17 -17 -15 5 -15 4 -3 -4 8 -6 18
-8 22 -6 4 3 8 0 8 -6 0 -6 4 -8 10 -5 6 4 7 -1 3 -11 -4 -12 -3 -15 5 -10 7
4 12 2 12 -4 0 -6 5 -8 12 -4 7 4 8 3 4 -4 -8 -14 -46 2 -46 18 0 6 -8 10 -17
10 -17 -1 -17 -1 -1 -11 10 -5 18 -17 18 -25 0 -9 -5 -12 -12 -8 -7 4 -8 3 -4
-5 4 -6 2 -19 -5 -27 -10 -12 -9 -13 4 -8 9 3 19 15 23 26 4 15 8 17 14 8 5
-8 13 -9 21 -4 11 6 11 4 0 -10 -11 -13 -16 -14 -22 -4 -6 9 -9 6 -9 -10 0
-14 -4 -21 -11 -16 -8 4 -8 0 0 -15 10 -17 9 -22 -4 -27 -10 -4 -13 -13 -10
-25 4 -11 2 -19 -6 -19 -8 0 -8 -5 2 -16 12 -15 11 -16 -11 -10 -25 6 -25 6
-2 -6 24 -12 28 -55 4 -50 -19 3 -14 -12 8 -26 11 -7 20 -8 20 -3 0 5 -5 11
-12 13 -9 3 -9 6 0 12 7 4 12 3 12 -3 0 -6 8 -8 17 -5 14 5 15 4 4 -4 -8 -6
-10 -15 -6 -22 5 -8 4 -11 -2 -7 -6 4 -16 -6 -22 -21 -12 -26 -12 -26 6 -9 23
20 33 22 33 5 0 -6 -3 -8 -7 -5 -12 12 -32 -28 -26 -52 4 -17 2 -22 -6 -17 -6
4 -11 13 -11 21 0 8 -4 17 -10 20 -7 4 -7 -2 -1 -18 6 -14 8 -28 5 -31 -2 -3
-1 -4 3 -1 3 3 13 -1 21 -8 9 -6 13 -7 10 -2 -3 6 4 10 16 10 14 0 22 -6 22
-17 0 -12 -4 -14 -12 -7 -7 6 -21 4 -40 -6 -18 -9 -23 -15 -12 -15 12 0 16 -6
13 -20 -2 -11 0 -18 5 -15 5 3 9 -3 9 -12 0 -25 6 -51 14 -59 3 -4 3 -14 -2
-23 -4 -9 -7 -25 -7 -36 1 -11 -3 -23 -7 -26 -5 -3 -2 -9 6 -12 12 -4 14 0 11
18 -2 13 0 26 5 29 4 3 7 17 6 31 -2 14 1 25 6 25 5 0 9 -5 9 -11 0 -5 5 -7
12 -3 7 4 8 3 4 -5 -4 -6 -12 -8 -18 -5 -8 5 -9 1 -5 -11 4 -9 2 -24 -4 -31
-12 -15 0 -19 17 -6 5 4 1 -1 -9 -10 -10 -9 -17 -20 -17 -25 1 -4 -7 -10 -17
-14 -17 -7 -17 -8 0 -8 9 -1 17 -6 17 -12 0 -5 -4 -8 -9 -5 -11 7 -9 -13 3
-32 4 -7 3 -19 -4 -27 -12 -15 -3 -24 22 -20 9 2 19 -3 22 -10 3 -10 0 -12
-12 -8 -15 6 -16 5 -2 -12 8 -10 10 -16 3 -12 -6 4 -15 2 -18 -4 -4 -5 -14 -8
-24 -5 -14 5 -13 4 1 -8 10 -7 18 -19 18 -27 0 -11 -2 -11 -10 1 -5 8 -10 11
-10 5 0 -5 4 -16 9 -24 7 -11 10 -9 16 8 3 11 10 21 15 21 5 0 6 -7 3 -17 -4
-11 -3 -14 5 -9 7 4 12 2 12 -4 0 -7 -7 -10 -15 -6 -18 7 -20 -5 -3 -23 8 -8
-1 -6 -21 4 l-35 18 18 -28 c15 -23 16 -29 5 -36 -11 -7 -11 -9 1 -9 13 0 13
-1 0 -11 -11 -8 -9 -9 10 -3 20 6 23 4 14 -7 -14 -18 -14 -50 -1 -68 14 -17
18 -41 6 -41 -5 0 -9 -5 -9 -11 0 -8 6 -7 17 2 15 12 16 12 11 -8 -4 -14 -2
-20 7 -17 6 3 18 -2 25 -11 10 -11 16 -13 26 -4 8 6 11 16 7 22 -4 6 -1 7 6 3
9 -6 8 -13 -6 -29 -17 -20 -17 -20 0 -14 11 4 16 3 12 -4 -4 -6 -13 -8 -21 -5
-8 3 -14 -1 -14 -10 0 -8 4 -12 10 -9 6 3 7 -1 4 -9 -3 -9 -11 -13 -17 -9 -6
3 -7 1 -3 -5 4 -7 1 -12 -8 -12 -8 0 -18 -4 -21 -10 -4 -7 2 -7 19 -1 19 8 27
6 38 -7 12 -16 11 -16 -6 -2 -18 13 -19 13 -14 -1 4 -11 0 -15 -14 -15 -12 1
-22 -6 -24 -17 -1 -9 2 -15 7 -11 5 3 7 10 4 15 -8 12 16 11 35 -1 14 -9 13
-11 -10 -14 -5 0 -10 -4 -10 -8 0 -5 2 -7 5 -5 6 3 39 -45 41 -60 1 -7 -1 -11
-4 -9 -4 2 -14 -12 -24 -31 -15 -33 -15 -34 1 -19 10 9 23 16 30 16 7 0 10 4
6 9 -3 5 -2 12 3 15 5 3 9 -2 9 -11 0 -9 -9 -18 -19 -21 -21 -5 -24 -22 -4
-22 8 0 18 -9 21 -20 3 -11 11 -20 16 -20 6 0 7 -4 4 -10 -3 -5 -2 -10 3 -10
6 0 13 -7 16 -16 3 -8 2 -12 -4 -9 -6 3 -10 -5 -10 -20 0 -23 3 -25 28 -19 21
4 24 3 12 -5 -13 -9 -13 -11 3 -11 9 0 16 -6 15 -12 -2 -7 3 -12 10 -10 6 1
11 -1 10 -5 -1 -7 4 -37 18 -95 1 -5 2 -11 3 -15 1 -5 6 -1 11 7 8 12 10 12
10 1 0 -17 22 -35 75 -61 60 -30 73 -40 130 -97 28 -29 57 -53 63 -53 7 0 12
-3 12 -7 0 -12 71 -41 117 -48 31 -5 52 -18 86 -50 l44 -44 527 -1 c538 0 747
8 871 37 55 13 150 17 456 20 l386 5 12 34 c14 40 58 73 105 81 l34 5 4 73 c4
55 11 84 32 119 25 44 27 51 24 163 l-3 118 -30 14 c-39 18 -83 59 -101 93 -8
15 -13 29 -12 31 2 1 -4 21 -13 42 -26 62 -37 111 -54 240 -19 145 -19 338 1
377 18 35 107 110 179 150 69 38 100 88 104 164 1 25 6 57 11 70 6 14 10 42
10 63 0 48 34 100 80 124 50 26 187 21 227 -9 51 -38 84 -128 90 -244 2 -47 8
-96 14 -110 5 -14 34 -43 64 -65 30 -22 54 -43 55 -46 0 -3 9 -15 20 -26 10
-12 36 -47 56 -80 20 -32 42 -62 48 -68 41 -34 136 -199 136 -238 0 -22 14
-47 65 -115 105 -141 135 -186 135 -202 0 -9 4 -20 8 -26 5 -5 14 -29 21 -54
7 -25 19 -52 26 -60 28 -32 115 -215 115 -240 0 -15 7 -43 15 -63 8 -19 11
-38 7 -42 -4 -4 27 -4 68 0 41 3 178 8 303 11 268 6 270 5 377 -98 119 -117
91 -108 354 -108 l230 0 50 42 c28 24 59 50 69 58 15 13 17 36 17 218 l0 203
-34 33 c-22 23 -41 57 -55 103 -12 37 -34 93 -49 123 -25 48 -38 61 -107 101
-135 80 -175 135 -175 242 0 44 -4 52 -83 140 -46 52 -104 125 -130 163 -25
38 -59 81 -74 95 -16 15 -37 45 -48 68 -10 23 -22 41 -26 41 -26 0 -165 112
-278 222 -81 80 -92 107 -103 262 -5 72 -16 145 -23 161 -7 17 -17 41 -20 54
-4 13 -13 38 -20 55 -7 17 -13 33 -12 36 0 3 -5 14 -11 26 -6 11 -13 34 -16
49 -3 16 -17 65 -30 109 -28 89 -44 225 -50 411 -9 328 -13 368 -38 413 -14
23 -27 40 -30 37 -2 -3 -5 1 -5 8 0 21 -35 67 -46 60 -6 -3 -7 -1 -3 6 4 6 3
17 -2 24 -11 14 -37 89 -34 100 1 4 -2 7 -6 7 -5 0 -9 7 -10 15 -1 8 -3 22 -4
30 -1 8 -5 15 -9 15 -4 0 -5 16 -2 35 4 22 1 41 -8 52 -9 11 -10 14 -1 9 17
-10 15 -2 -14 61 -16 35 -29 89 -35 142 -5 47 -12 95 -16 106 -3 11 -7 30 -9
42 -1 12 -12 36 -23 52 -29 40 -51 95 -57 140 -5 40 -45 160 -79 236 -24 55
-33 81 -40 116 -3 13 -5 240 -5 506 -1 314 -4 484 -11 489 -6 4 -6 12 3 22 10
14 10 15 -1 5 -7 -6 -21 -9 -30 -6 -11 4 -10 1 4 -10 11 -9 16 -17 11 -17 -5
0 -2 -8 5 -17 7 -10 9 -15 5 -11 -5 4 -15 3 -22 -3 -8 -7 -14 -7 -19 1 -4 6
-2 9 3 8 6 -2 10 0 11 5 3 22 0 27 -11 21 -7 -4 -10 -3 -5 1 4 5 0 20 -9 34
-9 14 -11 20 -3 14 16 -15 45 -17 54 -3 3 5 0 7 -8 4 -8 -3 -14 2 -14 11 0 9
6 14 14 11 9 -4 11 -1 7 5 -4 6 -8 25 -9 41 -2 23 1 28 14 24 14 -5 14 -5 0 6
-9 8 -15 27 -14 51 2 41 -18 69 -29 41 -3 -9 -1 -23 5 -30 8 -10 8 -14 0 -14
-6 0 -11 5 -11 10 0 7 -7 7 -22 0 -22 -11 -23 -11 -3 5 19 15 19 17 2 26 -14
8 -16 14 -6 25 6 7 15 11 20 9 4 -3 7 6 6 20 -1 14 -9 30 -17 35 -10 7 -11 10
-2 11 6 1 17 2 24 3 12 1 25 26 13 26 -3 0 -16 -5 -28 -11 -22 -10 -22 -10 1
10 21 18 21 20 5 30 -19 10 -13 23 14 27 11 2 13 0 5 -8 -11 -11 7 -38 24 -38
5 0 3 5 -4 12 -16 16 -15 31 1 22 9 -6 9 -4 -1 8 -10 13 -10 17 0 21 7 3 -1 3
-18 0 -18 -3 -35 0 -38 6 -4 7 -1 9 7 5 17 -6 18 26 2 39 -6 5 -3 7 7 3 10 -3
20 0 24 6 4 7 3 8 -4 4 -7 -4 -12 -1 -12 8 0 9 5 15 11 14 6 -2 14 4 16 12 4
13 3 13 -6 0 -6 -8 -11 -11 -11 -6 0 5 -12 -1 -26 -15 l-27 -24 17 26 c9 14
13 29 9 34 -5 4 -2 5 5 1 7 -4 12 -1 12 8 0 19 -11 20 -29 4 -9 -9 -12 -9 -7
-1 3 6 3 13 -1 16 -5 2 -2 2 5 1 6 -2 12 1 12 6 0 6 3 9 8 9 29 -5 32 3 12 30
-14 21 -17 32 -9 37 8 4 4 11 -11 19 -19 10 -20 13 -6 18 12 5 15 3 10 -6 -4
-6 -4 -9 1 -5 4 4 15 2 24 -5 14 -10 14 -10 3 4 -7 9 -11 22 -10 29 2 7 -4 15
-12 17 -13 4 -13 3 0 -6 8 -6 11 -11 7 -11 -14 0 -52 34 -55 50 -1 8 6 4 17
-10 18 -22 21 -23 26 -7 4 9 11 14 16 11 5 -3 9 0 9 5 0 15 -13 14 -29 -1 -11
-10 -13 -10 -7 0 4 6 3 12 -3 12 -5 0 -9 9 -8 20 1 11 4 20 7 20 11 0 8 34 -4
50 -9 13 -9 13 5 3 9 -7 18 -11 21 -8 2 3 5 -2 5 -10 0 -8 -3 -15 -7 -15 -4 0
-7 -7 -7 -15 0 -8 4 -12 9 -9 4 3 8 0 8 -5 0 -6 -7 -11 -16 -11 -8 0 -12 -5
-9 -10 5 -8 11 -8 20 0 10 9 12 36 6 93 -1 5 -5 5 -11 2 -5 -3 -10 -1 -10 5 0
6 -5 8 -12 4 -6 -4 -8 -3 -5 4 4 5 15 8 26 5 15 -4 18 1 17 25 -1 17 -5 27
-11 24 -6 -3 -6 0 1 9 15 21 11 65 -6 61 -10 -1 -8 3 4 13 18 14 15 20 -9 15
-5 -1 -4 4 3 11 18 19 15 32 -5 25 -16 -5 -15 -4 1 9 18 14 18 20 6 107 -6 51
-22 124 -35 162 -13 38 -21 81 -18 98 2 17 0 67 -6 112 -6 44 -11 179 -12 298
-1 144 -5 215 -12 211 -6 -4 -8 0 -4 11 4 10 3 15 -4 11 -5 -4 -7 -15 -4 -25
3 -11 0 -20 -10 -24 -8 -3 -15 -11 -15 -17 0 -8 4 -8 15 1 9 7 18 10 22 6 3
-3 1 -6 -6 -6 -7 0 -10 -4 -7 -9 4 -5 -2 -8 -11 -7 -9 2 -24 17 -33 34 -17 36
-36 47 -44 27 -3 -8 3 -19 14 -25 20 -11 28 -40 10 -40 -5 0 -7 7 -4 15 5 11
2 13 -12 8 -12 -4 -15 -3 -10 5 4 7 1 15 -8 18 -13 5 -12 8 2 24 8 11 19 17
22 15 4 -3 5 7 2 21 -3 16 1 29 9 34 11 7 10 13 -5 29 -10 11 -24 17 -32 14
-8 -3 -14 -1 -14 4 0 18 13 22 34 11 20 -11 20 -10 4 9 -10 11 -18 23 -18 28
0 4 8 1 18 -6 16 -13 16 -13 -1 7 -9 11 -14 24 -11 27 4 4 12 0 18 -9 10 -13
12 -13 12 5 0 11 -5 19 -11 18 -5 -1 -9 8 -9 20 1 13 -3 20 -7 17 -13 -8 -11
10 4 25 8 10 8 12 0 7 -6 -3 -14 -2 -18 4 -3 5 -1 10 4 10 6 0 11 5 11 12 0 9
-3 9 -12 0 -16 -16 -20 -44 -5 -36 7 4 7 1 -1 -7 -11 -12 -14 -12 -22 1 -5 8
-5 19 0 26 10 11 3 24 -12 24 -5 0 -7 -4 -4 -9 7 -11 -21 -9 -29 2 -3 4 -2 5
2 2 9 -7 34 16 28 25 -3 5 -1 12 5 15 6 4 10 3 9 -2 -3 -19 2 -33 12 -33 8 0
7 6 -2 17 -12 14 -12 16 2 11 9 -4 16 -1 16 8 0 7 -4 11 -9 8 -13 -8 -38 15
-32 31 3 7 1 16 -5 20 -6 3 -11 11 -11 17 0 6 7 5 18 -3 14 -11 15 -11 5 1 -7
8 -20 15 -28 16 -11 2 -12 -2 -5 -16 7 -13 6 -19 -4 -23 -10 -4 -12 0 -8 15 4
16 2 19 -8 13 -9 -6 -11 -4 -5 6 15 23 13 49 -3 47 -8 -2 -17 4 -19 12 -3 9
-1 11 4 5 4 -5 17 -10 29 -11 17 0 20 5 19 29 -1 17 -9 35 -18 42 -21 15 -22
29 -2 21 8 -3 15 -1 15 4 0 6 -7 10 -15 10 -8 0 -15 5 -15 12 0 9 -3 9 -12 0
-7 -7 -17 -12 -22 -12 -6 0 0 7 13 16 16 12 20 19 11 24 -9 6 -10 12 -1 26 8
15 11 16 12 4 1 -8 1 -18 0 -22 0 -5 4 -8 10 -8 5 0 7 -4 4 -10 -3 -5 -1 -10
5 -10 8 0 9 7 5 18 -4 9 -8 23 -8 30 0 6 -4 12 -9 12 -5 0 -6 5 -2 11 5 8 1 8
-14 0 -11 -6 -27 -11 -34 -10 -7 0 -3 4 10 9 12 5 22 15 22 21 0 8 -4 9 -13 0
-10 -8 -14 -7 -14 4 0 8 5 11 10 8 6 -4 8 0 4 10 -3 9 -1 19 5 23 6 4 8 3 4
-4 -3 -6 -2 -13 3 -17 6 -3 8 4 6 16 -5 24 -15 38 -15 21 0 -18 -27 -14 -34 4
-5 14 -4 15 9 4 15 -13 18 -9 18 25 0 28 -3 35 -14 35 -5 0 -7 -5 -3 -12 4 -7
3 -8 -5 -4 -9 6 -9 11 -1 21 8 9 6 14 -5 19 -9 3 -14 10 -10 15 3 5 0 13 -6
17 -7 4 -9 3 -6 -3 3 -5 0 -10 -8 -10 -13 0 -12 4 2 19 9 10 11 18 5 18 -7 0
-9 7 -5 17 5 12 3 14 -7 8 -9 -5 -11 -4 -6 4 6 10 -36 104 -105 230 -10 19
-36 53 -57 75 -22 23 -45 51 -51 64 -11 21 -18 22 -126 22 -70 0 -115 -4 -115
-10z m508 -516 c5 3 9 -1 9 -9 0 -17 -27 -5 -48 22 -13 17 -12 17 8 0 12 -11
26 -16 31 -13z m-20 -69 c-3 -3 -9 2 -12 12 -6 14 -5 15 5 6 7 -7 10 -15 7
-18z m20 -120 c-3 -3 -9 2 -12 12 -6 14 -5 15 5 6 7 -7 10 -15 7 -18z m67 -84
c9 -22 -10 -35 -32 -22 -12 8 -13 11 -3 9 9 -2 16 2 16 7 0 6 -7 9 -15 7 -8
-2 -12 2 -8 11 3 8 0 20 -6 27 -7 7 0 5 15 -6 15 -10 30 -25 33 -33z m-60 -31
c3 -6 -1 -7 -9 -4 -18 7 -21 14 -7 14 6 0 13 -4 16 -10z m35 -49 c0 -5 -7 -12
-16 -15 -14 -5 -15 -4 -4 9 14 17 20 19 20 6z m45 -61 c-4 -6 -1 -17 5 -25 7
-9 8 -15 2 -15 -12 0 -24 29 -16 41 3 5 7 9 10 9 3 0 2 -5 -1 -10z m-11 -56
c3 -8 2 -12 -4 -9 -6 3 -10 10 -10 16 0 14 7 11 14 -7z m71 -122 c-2 -9 -4
-18 -5 -19 -2 -3 -5 -12 -9 -29 0 -3 -6 -2 -11 1 -7 4 -7 12 -2 18 4 7 7 22 6
34 -1 13 3 20 11 16 7 -2 12 -12 10 -21z m-43 -19 c-6 -2 -9 -10 -6 -15 4 -7
2 -8 -5 -4 -13 9 -5 26 12 25 9 0 8 -2 -1 -6z m18 -47 c0 -3 -4 -8 -10 -11 -5
-3 -10 -1 -10 4 0 6 5 11 10 11 6 0 10 -2 10 -4z m35 -80 c-8 -13 -13 -25 -10
-28 3 -3 -1 -11 -9 -17 -12 -10 -14 -9 -12 3 1 9 5 19 9 22 11 11 8 22 -5 27
-7 2 -5 3 5 2 9 -2 17 3 17 11 0 8 -7 11 -17 8 -15 -5 -15 -4 -3 4 25 18 42
-5 25 -32z m185 -1162 c0 -8 -19 -13 -24 -6 -3 5 1 9 9 9 8 0 15 -2 15 -3z
m-6 -70 c3 -8 2 -12 -4 -9 -6 3 -10 10 -10 16 0 14 7 11 14 -7z m-37 -79 c0
-8 -4 -12 -9 -9 -5 3 -6 10 -3 15 9 13 12 11 12 -6z m8 -133 c-3 -3 -11 0 -18
7 -9 10 -8 11 6 5 10 -3 15 -9 12 -12z m15 -44 c0 -4 -4 -8 -9 -8 -6 0 -12 4
-15 8 -3 5 1 9 9 9 8 0 15 -4 15 -9z m-9 -38 c6 0 7 5 3 12 -4 7 -3 8 5 4 6
-4 9 -12 6 -17 -4 -5 -1 -9 4 -9 22 0 10 -16 -11 -17 -13 0 -17 1 -10 4 10 4
8 9 -7 20 -12 8 -21 20 -21 26 0 7 5 4 11 -5 5 -10 15 -18 20 -18z m-17 -210
c-6 -6 -10 -3 -10 10 0 13 4 16 10 10 7 -7 7 -13 0 -20z m21 -38 c-3 -3 -11 0
-18 7 -9 10 -8 11 6 5 10 -3 15 -9 12 -12z m-19 -38 c1 -9 0 -13 -4 -10 -3 4
-7 14 -8 22 -1 9 0 13 4 10 3 -4 7 -14 8 -22z m21 -46 c-3 -8 -6 -5 -6 6 -1
11 2 17 5 13 3 -3 4 -12 1 -19z m50 -73 c0 -8 -4 -12 -9 -9 -4 3 -8 9 -8 15 0
5 4 9 8 9 5 0 9 -7 9 -15z m-3 -93 c-1 -26 -3 -49 -4 -52 -1 -3 -2 -8 -1 -12
2 -16 -16 -7 -35 15 -10 12 -12 16 -4 10 20 -18 35 -16 20 3 -8 8 -9 14 -4 13
20 -3 24 2 12 15 -9 9 -17 11 -25 5 -7 -7 -14 -6 -19 2 -4 7 -3 9 4 5 6 -3 15
2 21 11 6 11 11 13 11 5 0 -7 5 -10 11 -6 8 4 8 9 0 17 -15 15 -14 27 2 21 9
-3 12 -21 11 -52z m-40 -100 c3 -5 -1 -9 -9 -9 -8 0 -12 4 -9 9 3 4 7 8 9 8 2
0 6 -4 9 -8z m-4441 -389 c30 -16 36 -19 54 -22 4 0 2 -6 -5 -13 -9 -9 -15 -8
-25 7 -8 10 -19 15 -26 11 -12 -8 -41 10 -41 25 0 13 7 11 43 -8z m15 -58 c-3
-3 -9 2 -12 12 -6 14 -5 15 5 6 7 -7 10 -15 7 -18z m102 13 c0 6 5 12 11 12 8
0 8 -5 -1 -15 -17 -20 -30 -19 -30 3 0 14 2 15 10 2 6 -10 10 -11 10 -2z
m-393 -58 c-1 -11 -5 -20 -9 -20 -10 0 -10 4 -2 24 8 22 13 20 11 -4z m46 5
c-3 -9 -8 -14 -10 -11 -3 3 -2 9 2 15 9 16 15 13 8 -4z m447 -15 c0 -5 -2 -10
-4 -10 -3 0 -8 5 -11 10 -3 6 -1 10 4 10 6 0 11 -4 11 -10z m50 -45 c0 -2 -9
-3 -19 -2 -11 0 -18 5 -15 9 4 6 34 0 34 -7z m30 -95 c0 -5 -5 -10 -11 -10 -5
0 -7 5 -4 10 3 6 8 10 11 10 2 0 4 -4 4 -10z m85 -9 c8 -14 -13 -24 -33 -16
-14 5 -14 7 -2 15 19 12 27 12 35 1z m45 -75 c0 -2 -6 -9 -14 -15 -11 -9 -16
-9 -22 0 -4 7 -3 9 4 5 6 -3 13 -2 17 4 6 10 15 14 15 6z m-996 -14 c2 -4 -5
-9 -17 -9 -17 -2 -19 0 -7 7 18 12 18 12 24 2z m977 -95 c-10 -9 -11 -8 -5 6
3 10 9 15 12 12 3 -3 0 -11 -7 -18z m75 -3 c-11 -8 -25 -14 -30 -13 -6 0 -1 5
12 11 12 6 22 16 22 21 0 6 3 7 7 3 5 -4 -1 -14 -11 -22z m-1103 -82 c-5 -11
-3 -13 7 -7 9 5 11 4 6 -4 -6 -9 -11 -9 -22 0 -12 10 -12 14 -2 20 7 5 8 9 2
9 -6 0 -11 7 -11 16 0 15 2 15 13 -1 7 -9 10 -24 7 -33z m1117 18 c0 -5 -5
-10 -11 -10 -5 0 -7 5 -4 10 3 6 8 10 11 10 2 0 4 -4 4 -10z m50 -33 c0 -2
-10 -12 -22 -23 l-23 -19 19 23 c18 21 26 27 26 19z m26 -35 c-17 -16 -18 -16
-5 5 7 12 15 20 18 17 3 -2 -3 -12 -13 -22z m-1062 -76 c2 -14 0 -23 -4 -21
-4 3 -7 16 -7 30 0 32 8 26 11 -9z m20 -52 c3 -8 2 -12 -4 -9 -6 3 -10 10 -10
16 0 14 7 11 14 -7z m43 -181 c-4 -3 -2 -12 5 -20 8 -11 7 -12 -6 -7 -18 7
-22 34 -4 34 6 0 8 -3 5 -7z m-7 -44 c13 -9 12 -10 -2 -5 -21 6 -23 -4 -5 -23
10 -11 8 -11 -10 -2 -14 7 -20 17 -17 26 7 18 14 18 34 4z m30 -39 c0 -5 -2
-10 -4 -10 -3 0 -8 5 -11 10 -3 6 -1 10 4 10 6 0 11 -4 11 -10z m-20 -14 c0
-2 -7 -7 -16 -10 -8 -3 -12 -2 -9 4 6 10 25 14 25 6z m120 -142 c0 -8 -19 -13
-24 -6 -3 5 1 9 9 9 8 0 15 -2 15 -3z m-5 -154 c-3 -5 7 -16 22 -24 15 -8 22
-15 16 -16 -20 0 -15 -20 5 -21 16 -1 16 -2 -1 -6 -10 -3 -14 -10 -11 -16 4
-7 4 -9 0 -5 -4 3 -6 8 -4 10 1 2 -7 19 -20 39 -12 20 -19 39 -15 42 10 10 15
8 8 -3z m65 -35 c0 -5 -5 -3 -10 5 -5 8 -10 20 -10 25 0 6 5 3 10 -5 5 -8 10
-19 10 -25z m73 -160 c-3 -9 -8 -14 -10 -11 -3 3 -2 9 2 15 9 16 15 13 8 -4z
m-13 -42 c0 -13 3 -15 8 -5 6 9 12 5 22 -13 10 -18 16 -22 22 -13 5 9 8 10 8
1 0 -22 -17 -22 -46 0 -30 22 -42 47 -24 47 6 0 10 -8 10 -17z m225 -273 c3
-6 -1 -7 -9 -4 -18 7 -21 14 -7 14 6 0 13 -4 16 -10z m50 -119 c3 -5 2 -12 -3
-15 -5 -3 -9 1 -9 9 0 17 3 19 12 6z m5 -36 c0 -2 -6 -8 -13 -14 -10 -8 -14
-7 -14 2 0 8 6 14 14 14 7 0 13 -1 13 -2z m20 -26 c0 -5 -4 -7 -10 -4 -5 3
-10 1 -10 -6 0 -7 -3 -10 -6 -6 -8 7 4 27 17 27 5 0 9 -5 9 -11z m15 -99 c3
-5 1 -10 -4 -10 -6 0 -11 5 -11 10 0 6 2 10 4 10 3 0 8 -4 11 -10z m55 -275
c20 12 1 -50 -19 -64 -21 -14 -22 -13 -18 15 3 16 10 28 16 27 17 -4 13 14 -4
21 -8 3 -15 10 -15 16 0 6 7 4 16 -4 8 -9 19 -14 24 -11z m30 -64 c0 -6 -4
-12 -8 -15 -5 -3 -9 1 -9 9 0 8 4 15 9 15 4 0 8 -4 8 -9z m60 -217 c0 -8 -19
-13 -24 -6 -3 5 1 9 9 9 8 0 15 -2 15 -3z m-25 -24 c3 -5 1 -10 -4 -10 -6 0
-11 5 -11 10 0 6 2 10 4 10 3 0 8 -4 11 -10z m2 -46 c-3 -3 -12 -4 -19 -1 -8
3 -5 6 6 6 11 1 17 -2 13 -5z m17 -76 c-3 -5 -10 -6 -15 -2 -5 3 -18 0 -27 -8
-15 -12 -16 -11 -4 4 13 16 56 22 46 6z m11 -98 l20 -25 -22 19 c-13 11 -23
24 -23 29 0 6 1 8 3 6 1 -2 11 -15 22 -29z m15 20 c0 -5 -2 -10 -4 -10 -3 0
-8 5 -11 10 -3 6 -1 10 4 10 6 0 11 -4 11 -10z m-31 -39 c9 -17 8 -18 -11 -13
-14 3 -17 7 -9 10 11 4 11 6 0 13 -10 6 -10 9 -2 9 7 0 17 -9 22 -19z m44 -74
c3 -8 -1 -14 -8 -14 -7 0 -11 6 -8 14 3 7 6 13 8 13 2 0 5 -6 8 -13z m-23 -27
c13 -8 13 -10 -2 -10 -9 0 -20 5 -23 10 -8 13 5 13 25 0z m24 -96 c3 -8 2 -12
-4 -9 -6 3 -10 10 -10 16 0 14 7 11 14 -7z m-13 -123 c5 8 9 10 9 4 0 -5 -4
-16 -9 -24 -12 -18 -32 -5 -24 16 5 12 8 13 11 4 4 -11 6 -11 13 0z m29 -35
c0 -3 -4 -8 -10 -11 -5 -3 -10 -1 -10 4 0 6 5 11 10 11 6 0 10 -2 10 -4z m-21
-32 c4 3 8 -2 8 -10 0 -10 -4 -11 -11 -4 -17 17 -27 11 -14 -9 7 -11 17 -17
23 -13 5 3 4 -1 -3 -10 -9 -11 -9 -18 -2 -21 6 -3 6 -5 -1 -3 -7 1 -13 10 -15
21 -1 10 -8 21 -15 26 -10 6 -10 11 1 24 9 11 16 13 18 6 2 -6 7 -9 11 -7z
m35 -96 c-3 -4 -11 -5 -19 -1 -21 7 -19 12 4 10 11 0 18 -5 15 -9z m9 -20 c-2
-5 -13 -8 -24 -8 -10 0 -19 3 -19 8 0 4 11 7 24 7 13 0 22 -3 19 -7z m2 -124
c-14 -11 -16 -18 -7 -21 6 -3 12 -9 12 -14 0 -5 -9 -4 -20 3 -26 16 -25 22 3
36 31 15 35 14 12 -4z m-25 -59 c-8 -10 -7 -16 7 -24 11 -6 13 -11 5 -11 -7 0
-10 -5 -7 -10 4 -6 11 -7 17 -4 7 4 8 2 4 -5 -6 -9 -11 -9 -22 0 -17 14 -19
-2 -1 -20 10 -11 8 -11 -9 -1 -15 9 -20 22 -20 44 2 37 14 59 27 50 6 -4 6
-11 -1 -19z m-5 -95 c3 -5 1 -10 -4 -10 -6 0 -11 5 -11 10 0 6 2 10 4 10 3 0
8 -4 11 -10z m6 -117 c-11 -5 -11 -7 0 -14 12 -7 12 -10 0 -21 -9 -8 -11 -9
-7 -1 3 6 2 14 -4 18 -13 8 -3 25 13 24 8 0 7 -3 -2 -6z m10 -90 c10 -11 10
-14 2 -9 -7 4 -13 2 -13 -3 0 -6 4 -11 9 -11 5 0 12 -7 15 -15 5 -13 1 -12
-18 2 -19 15 -24 28 -17 51 2 6 10 1 22 -15z m5 -76 c1 -9 -1 -19 -6 -22 -5
-3 -7 3 -6 12 2 10 -2 22 -8 26 -7 6 -6 7 3 5 8 -2 15 -12 17 -21z m31 -4 c1
-22 -1 -24 -8 -10 -6 9 -7 22 -4 27 9 14 10 13 12 -17z m18 -73 c3 -6 -1 -7
-9 -4 -18 7 -21 14 -7 14 6 0 13 -4 16 -10z m1 -62 c3 -4 -1 -5 -10 -4 -8 1
-18 5 -22 8 -3 4 1 5 10 4 8 -1 18 -5 22 -8z m-36 -19 c0 -5 6 -7 13 -3 6 4 4
-2 -5 -13 -22 -24 -24 -40 -4 -23 13 10 13 8 3 -14 -7 -14 -18 -28 -26 -31
-11 -4 -12 -3 -1 10 10 12 10 18 0 30 -10 12 -9 16 4 21 13 5 14 9 5 20 -8 10
-8 14 0 14 6 0 11 -5 11 -11z m37 -49 c-2 -11 -6 -22 -9 -26 -4 -3 -5 2 -3 13
2 10 4 21 4 26 1 4 3 7 6 7 3 0 4 -9 2 -20z m23 -144 c0 -2 -7 -7 -16 -10 -8
-3 -12 -2 -9 4 6 10 25 14 25 6z m-40 -79 c8 -3 3 -5 -12 -4 -15 1 -24 5 -21
10 2 4 1 14 -4 20 -4 7 -1 6 7 -3 9 -10 22 -20 30 -23z m17 -36 c0 -11 -5 -18
-9 -15 -4 3 -5 11 -1 19 7 21 12 19 10 -4z m-32 -11 c-3 -5 -1 -10 4 -10 6 0
11 -7 11 -16 0 -9 5 -12 13 -8 9 6 9 5 0 -8 -13 -15 -8 -28 9 -28 5 0 6 5 2
12 -5 7 -3 8 6 3 10 -6 10 -10 -3 -20 -14 -10 -14 -14 6 -35 19 -20 19 -22 2
-9 -19 13 -39 38 -40 49 0 3 -5 14 -11 25 -12 23 -11 55 2 55 3 0 2 -4 -1 -10z
m95 -204 c0 -3 -4 -8 -10 -11 -5 -3 -10 -1 -10 4 0 6 5 11 10 11 6 0 10 -2 10
-4z m0 -90 c0 -3 -4 -8 -10 -11 -5 -3 -10 -1 -10 4 0 6 5 11 10 11 6 0 10 -2
10 -4z m15 -26 c3 -5 1 -10 -4 -10 -6 0 -11 5 -11 10 0 6 2 10 4 10 3 0 8 -4
11 -10z m65 -214 c0 -2 -7 -6 -15 -10 -8 -3 -15 -1 -15 4 0 6 7 10 15 10 8 0
15 -2 15 -4z"/>
<path d="M2127 5489 c7 -7 15 -10 18 -7 3 3 -2 9 -12 12 -14 6 -15 5 -6 -5z"/>
<path d="M2313 3104 c0 -16 13 -19 21 -5 3 5 0 11 -7 14 -8 3 -14 -1 -14 -9z"/>
<path d="M2460 1879 c0 -5 5 -7 10 -4 6 3 10 8 10 11 0 2 -4 4 -10 4 -5 0 -10
-5 -10 -11z"/>
<path d="M6340 8398 c0 -4 4 -8 9 -8 6 0 12 4 15 8 3 5 -1 9 -9 9 -8 0 -15 -4
-15 -9z"/>
<path d="M6389 8323 c-13 -16 -12 -17 4 -4 9 7 17 15 17 17 0 8 -8 3 -21 -13z"/>
<path d="M6457 7983 c-4 -3 -7 -13 -7 -22 1 -13 3 -13 11 2 11 19 8 33 -4 20z"/>
<path d="M6495 7980 c3 -5 8 -10 11 -10 2 0 4 5 4 10 0 6 -5 10 -11 10 -5 0
-7 -4 -4 -10z"/>
<path d="M6472 7953 c-11 -23 -10 -42 3 -45 6 -2 11 12 12 30 1 36 -2 40 -15
15z"/>
<path d="M6628 6336 c-19 -14 -23 -26 -10 -26 4 0 13 9 20 20 14 23 13 24 -10
6z"/>
<path d="M6635 6189 c-4 -6 -14 -8 -22 -4 -13 4 -14 3 -3 -10 7 -9 13 -14 14
-13 1 2 8 11 15 21 7 9 11 17 8 17 -3 0 -9 -5 -12 -11z"/>
<path d="M6615 6120 c-4 -6 -10 -8 -15 -5 -5 3 -11 1 -14 -4 -3 -5 0 -11 8
-14 8 -3 17 1 20 10 4 9 13 13 22 9 8 -3 12 -2 9 4 -8 13 -22 13 -30 0z"/>
<path d="M2076 5535 c-17 -17 -11 -49 7 -38 8 5 8 8 -1 11 -9 3 -8 7 1 17 7 7
16 10 21 7 5 -3 6 0 2 6 -9 15 -12 15 -30 -3z"/>
<path d="M1980 5515 c-11 -13 -10 -14 6 -8 17 6 17 5 5 -10 -12 -15 -12 -17 3
-11 18 7 19 13 7 32 -6 10 -10 10 -21 -3z"/>
<path d="M2172 5521 c-11 -7 -11 -9 0 -14 9 -3 15 1 15 9 0 8 -1 14 -1 14 -1
0 -7 -4 -14 -9z"/>
<path d="M2228 5483 c7 -3 16 -2 19 1 4 3 -2 6 -13 5 -11 0 -14 -3 -6 -6z"/>
<path d="M1900 5460 c-9 -6 -10 -10 -3 -10 6 0 15 5 18 10 8 12 4 12 -15 0z"/>
<path d="M1836 5442 c-3 -5 1 -9 9 -9 8 0 12 4 9 9 -3 4 -7 8 -9 8 -2 0 -6 -4
-9 -8z"/>
<path d="M2356 5433 c-6 -14 -5 -15 5 -6 7 7 10 15 7 18 -3 3 -9 -2 -12 -12z"/>
<path d="M2384 5436 c1 -6 4 -15 7 -21 4 -5 5 -18 3 -28 -1 -11 0 -16 4 -13 3
3 16 -3 28 -15 21 -19 22 -20 20 -3 -2 11 2 25 8 33 8 11 8 13 0 8 -11 -6 -29
19 -26 35 1 4 -6 4 -15 1 -10 -4 -14 -2 -10 4 3 5 0 10 -7 10 -8 0 -13 -5 -12
-11z m47 -36 c0 -3 2 -13 4 -23 3 -18 3 -18 -16 -1 -10 9 -17 19 -14 22 3 3
-1 12 -8 20 -11 13 -9 14 11 1 12 -8 22 -16 23 -19z"/>
<path d="M1815 5391 c6 -20 5 -22 -13 -12 -12 6 -24 11 -29 11 -9 -1 38 -27
51 -29 16 -2 15 23 -1 38 -13 12 -14 11 -8 -8z"/>
<path d="M2483 5292 c13 -15 14 -21 4 -31 -9 -10 -9 -11 4 -6 9 3 17 17 17 32
0 18 -3 21 -9 12 -6 -10 -9 -11 -9 -1 0 6 -5 12 -12 12 -6 0 -5 -7 5 -18z"/>
<path d="M1570 5261 c0 -6 4 -13 10 -16 6 -3 7 1 4 9 -7 18 -14 21 -14 7z"/>
<path d="M1550 5240 c0 -5 5 -10 11 -10 5 0 7 5 4 10 -3 6 -8 10 -11 10 -2 0
-4 -4 -4 -10z"/>
<path d="M2613 5155 c0 -8 4 -12 9 -9 5 3 6 10 3 15 -9 13 -12 11 -12 -6z"/>
<path d="M2620 5126 c0 -2 8 -10 18 -17 15 -13 16 -12 3 4 -13 16 -21 21 -21
13z"/>
<path d="M1490 5029 c0 -5 -5 -7 -12 -3 -7 4 -8 3 -4 -4 4 -6 13 -9 21 -6 8 4
12 10 9 15 -7 12 -14 11 -14 -2z"/>
<path d="M1599 4848 c-6 -19 -4 -60 4 -65 6 -3 7 -1 3 5 -3 6 2 15 11 21 11 6
13 11 5 11 -7 0 -11 4 -7 9 3 5 1 12 -5 16 -5 3 -10 5 -11 3z"/>
<path d="M3892 4680 c0 -19 2 -27 5 -17 2 9 2 25 0 35 -3 9 -5 1 -5 -18z"/>
<path d="M1668 4613 c6 -2 9 -10 6 -15 -4 -7 -2 -8 5 -4 13 9 5 26 -12 25 -9
0 -8 -2 1 -6z"/>
<path d="M1653 4583 c4 -3 1 -13 -6 -22 -11 -14 -10 -14 5 -2 16 12 16 31 1
31 -4 0 -3 -3 0 -7z"/>
<path d="M1735 4349 c-4 -6 -5 -12 -2 -15 2 -3 7 2 10 11 7 17 1 20 -8 4z"/>
<path d="M1756 4258 c3 -5 10 -6 15 -3 13 9 11 12 -6 12 -8 0 -12 -4 -9 -9z"/>
<path d="M1776 4223 c-6 -14 -5 -15 5 -6 7 7 10 15 7 18 -3 3 -9 -2 -12 -12z"/>
<path d="M1887 4084 c3 -8 0 -14 -6 -14 -6 0 -11 -4 -11 -10 0 -5 6 -9 13 -7
6 1 11 -4 10 -10 -2 -7 2 -13 7 -13 11 0 12 3 14 39 1 16 -5 25 -16 27 -11 1
-15 -3 -11 -12z m20 -13 c0 -11 -5 -18 -9 -15 -4 3 -5 11 -1 19 7 21 12 19 10
-4z"/>
<path d="M2050 3841 c0 -6 6 -11 13 -11 8 0 7 -4 -3 -10 -12 -8 -10 -10 9 -8
13 2 26 -2 28 -9 3 -7 -3 -10 -15 -6 -11 2 -23 0 -26 -5 -4 -6 3 -8 16 -5 19
4 20 3 8 -6 -8 -6 -10 -11 -4 -11 5 0 18 6 28 13 17 12 17 14 -3 37 -11 14
-20 21 -21 16 0 -5 -7 -3 -15 4 -10 9 -15 9 -15 1z"/>
<path d="M2096 3685 c4 -8 11 -15 16 -15 6 0 5 6 -2 15 -7 8 -14 15 -16 15 -2
0 -1 -7 2 -15z"/>
<path d="M2116 3647 c3 -10 9 -15 12 -12 3 3 0 11 -7 18 -10 9 -11 8 -5 -6z"/>
<path d="M2189 3588 c-6 -27 -5 -39 4 -45 7 -3 9 -3 5 2 -4 4 -3 14 3 21 7 8
7 14 -1 19 -5 3 -10 5 -11 3z"/>
<path d="M2156 3563 c-6 -14 -5 -15 5 -6 7 7 10 15 7 18 -3 3 -9 -2 -12 -12z"/>
<path d="M2213 3481 c0 -11 5 -18 9 -15 4 3 5 11 1 19 -7 21 -12 19 -10 -4z"/>
<path d="M2227 3456 c-15 -11 -15 -15 -3 -25 11 -9 16 -9 22 0 4 8 3 9 -4 5
-16 -9 -15 7 0 22 16 16 7 15 -15 -2z"/>
<path d="M2340 2899 c-12 -8 -10 -9 8 -4 22 6 23 5 12 -15 -12 -22 -8 -36 8
-26 11 7 8 49 -4 53 -5 1 -16 -2 -24 -8z"/>
<path d="M2335 2830 c-3 -6 1 -7 9 -4 18 7 21 14 7 14 -6 0 -13 -4 -16 -10z"/>
<path d="M2370 2670 c0 -13 18 -22 24 -11 3 5 -1 11 -9 15 -8 3 -15 1 -15 -4z"/>
<path d="M7726 2661 c-3 -4 1 -17 10 -27 14 -18 15 -18 5 2 -6 12 -7 24 -4 28
3 3 4 6 0 6 -3 0 -8 -4 -11 -9z"/>
<path d="M2355 2600 c3 -5 8 -10 11 -10 2 0 4 5 4 10 0 6 -5 10 -11 10 -5 0
-7 -4 -4 -10z"/>
<path d="M7735 2600 c3 -5 8 -10 11 -10 2 0 4 5 4 10 0 6 -5 10 -11 10 -5 0
-7 -4 -4 -10z"/>
<path d="M7746 2563 c-6 -14 -5 -15 5 -6 7 7 10 15 7 18 -3 3 -9 -2 -12 -12z"/>
<path d="M7756 2482 c6 -4 10 -14 9 -22 -1 -8 0 -22 4 -31 5 -14 9 -14 36 4
17 10 22 16 11 13 -14 -5 -17 -2 -12 9 3 9 2 14 -3 11 -5 -3 -14 1 -21 9 -7 8
-18 15 -24 15 -8 0 -8 -2 0 -8z m34 -39 c0 -19 -13 -9 -16 12 -1 8 2 13 7 9 5
-3 9 -12 9 -21z"/>
<path d="M2400 2456 c14 -18 13 -19 -5 -13 -20 7 -20 7 -1 -8 14 -11 16 -15 5
-15 -12 0 -12 -2 0 -9 20 -13 26 -52 7 -45 -8 3 -17 0 -22 -7 -4 -7 -3 -10 4
-6 13 9 44 -2 37 -14 -3 -4 -13 -5 -23 -2 -15 6 -15 5 1 -11 10 -10 21 -15 24
-12 10 10 12 76 2 81 -4 3 -6 14 -4 24 2 11 -6 27 -18 38 -21 18 -21 18 -7 -1z"/>
<path d="M7816 2418 c5 -7 2 -9 -9 -5 -24 9 -26 -15 -3 -45 12 -15 29 -38 39
-52 15 -22 20 -24 38 -13 17 11 18 13 4 23 -10 8 -12 14 -5 17 6 3 5 4 -2 3
-7 -2 -13 -8 -13 -13 0 -6 -3 -14 -6 -17 -6 -6 -5 32 1 44 1 3 3 12 4 20 0 8
7 14 14 12 8 -1 11 2 7 9 -5 8 -10 8 -18 0 -15 -15 -30 -14 -21 2 4 6 -1 4
-12 -5 -14 -12 -23 -14 -34 -7 -13 9 -12 10 2 6 9 -3 19 1 22 9 8 21 8 24 -5
24 -5 0 -7 -5 -3 -12z m33 -65 c-14 -17 -31 1 -22 24 4 10 9 11 19 2 11 -9 12
-15 3 -26z"/>
<path d="M2431 1754 c0 -11 3 -14 6 -6 3 7 2 16 -1 19 -3 4 -6 -2 -5 -13z"/>
<path d="M2456 1483 c-6 -14 -5 -15 5 -6 7 7 10 15 7 18 -3 3 -9 -2 -12 -12z"/>
<path d="M2480 1270 c-12 -7 -12 -12 -2 -22 6 -6 12 -10 13 -7 0 2 2 12 4 22
4 20 4 19 -15 7z"/>
<path d="M2486 997 c3 -10 9 -15 12 -12 3 3 0 11 -7 18 -10 9 -11 8 -5 -6z"/>
<path d="M2539 928 c-8 -27 -6 -38 5 -29 7 6 17 7 22 3 4 -4 2 1 -5 11 -12 16
-20 21 -22 15z"/>
<path d="M2534 737 c-4 -6 -4 -9 1 -5 4 4 16 -3 26 -15 13 -17 20 -19 29 -10
10 9 5 15 -18 27 -24 12 -32 13 -38 3z"/>
<path d="M2535 700 c3 -5 8 -10 11 -10 2 0 4 5 4 10 0 6 -5 10 -11 10 -5 0 -7
-4 -4 -10z"/>
<path d="M2559 688 c0 -2 -2 -11 -4 -21 -3 -15 -1 -16 11 -6 16 13 19 29 4 29
-5 0 -10 -1 -11 -2z"/>
<path d="M2574 618 c-4 -7 -3 -8 4 -4 11 6 17 -13 13 -37 -1 -5 3 -6 9 -2 13
8 13 -8 -1 -22 -8 -8 -7 -13 2 -18 7 -5 10 -4 7 1 -3 5 0 15 8 22 8 7 14 8 14
2 0 -5 4 -10 10 -10 13 0 -28 67 -45 74 -8 3 -17 0 -21 -6z m40 -24 c3 -8 2
-12 -4 -9 -6 3 -10 10 -10 16 0 14 7 11 14 -7z"/>
</g>
</svg>
